<mxfile host="app.diagrams.net" modified="2024-03-22T14:37:48.116Z" agent="Mozilla/5.0 (X11; Ubuntu; Linux x86_64; rv:123.0) Gecko/20100101 Firefox/123.0" version="24.0.8" etag="j8g7YuYup0hkEhVtzaJB" type="github">
  <diagram name="PÃ¡gina-1" id="h7ibdC5bWbTquj0Hi7Pj">
    <mxGraphModel>
      <root>
        <mxCell id="0" />
        <mxCell id="1" parent="0" />
      </root>
    </mxGraphModel>
  </diagram>
</mxfile>
